<svg xmlns="http://www.w3.org/2000/svg" xmlns:xlink="http://www.w3.org/1999/xlink" width="500" zoomAndPan="magnify" viewBox="0 0 375 167.999997" height="224" preserveAspectRatio="xMidYMid meet" version="1.0"><defs><filter x="0%" y="0%" width="100%" height="100%" id="10e744c564"><feColorMatrix values="0 0 0 0 1 0 0 0 0 1 0 0 0 0 1 0 0 0 1 0" color-interpolation-filters="sRGB"/></filter><g/><mask id="b952379d58"><g filter="url(#10e744c564)"><rect x="-37.5" width="450" fill="#000000" y="-16.8" height="201.599996" fill-opacity="0.24"/></g></mask><clipPath id="230d8a71ea"><rect x="0" width="371" y="0" height="114"/></clipPath></defs><g mask="url(#b952379d58)"><g transform="matrix(1, 0, 0, 1, 4, 15)"><g clip-path="url(#230d8a71ea)"><g fill="#5d452b" fill-opacity="1"><g transform="translate(0.72968, 86.995237)"><g><path d="M 3.296875 -78.671875 L 3.296875 -80.09375 L 23.515625 -84.046875 L 23.515625 -7.359375 C 23.515625 -4.796875 24.132812 -3.164062 25.375 -2.46875 C 26.625 -1.769531 28.53125 -1.421875 31.09375 -1.421875 L 31.09375 0 L 4.71875 0 L 4.71875 -1.421875 C 7.363281 -1.421875 9.328125 -1.769531 10.609375 -2.46875 C 11.890625 -3.164062 12.53125 -4.796875 12.53125 -7.359375 L 12.53125 -73.609375 C 12.53125 -75.804688 11.703125 -77.195312 10.046875 -77.78125 C 8.398438 -78.375 6.148438 -78.671875 3.296875 -78.671875 Z M 3.296875 -78.671875 "/></g></g></g><g fill="#5d452b" fill-opacity="1"><g transform="translate(42.370667, 86.995237)"><g><path d="M 4.390625 -15.828125 C 4.390625 -19.628906 5.210938 -22.738281 6.859375 -25.15625 C 8.515625 -27.570312 10.566406 -29.457031 13.015625 -30.8125 C 15.472656 -32.175781 18 -33.113281 20.59375 -33.625 C 23.195312 -34.132812 25.414062 -34.390625 27.25 -34.390625 C 30.757812 -34.390625 33.613281 -34.054688 35.8125 -33.390625 C 38.007812 -32.734375 39.804688 -31.894531 41.203125 -30.875 L 41.203125 -37.359375 C 41.203125 -39.410156 40.722656 -41.382812 39.765625 -43.28125 C 38.816406 -45.1875 37.242188 -46.78125 35.046875 -48.0625 C 32.847656 -49.351562 29.8125 -50 25.9375 -50 C 20.070312 -50 15.582031 -48.550781 12.46875 -45.65625 C 9.351562 -42.757812 7.796875 -39.222656 7.796875 -35.046875 L 6.375 -35.046875 C 6.375 -39.878906 7.472656 -43.796875 9.671875 -46.796875 C 11.867188 -49.804688 14.632812 -52.003906 17.96875 -53.390625 C 21.300781 -54.785156 24.648438 -55.484375 28.015625 -55.484375 C 35.484375 -55.484375 41.378906 -53.796875 45.703125 -50.421875 C 50.023438 -47.054688 52.1875 -42.703125 52.1875 -37.359375 L 52.1875 -10.65625 C 52.1875 -7.800781 52.535156 -5.566406 53.234375 -3.953125 C 53.929688 -2.335938 55.34375 -1.53125 57.46875 -1.53125 C 59.226562 -1.53125 60.617188 -2.039062 61.640625 -3.0625 C 62.660156 -4.09375 63.390625 -5.320312 63.828125 -6.75 C 64.273438 -8.1875 64.5 -9.488281 64.5 -10.65625 L 65.921875 -10.65625 C 65.921875 -8.601562 65.570312 -6.660156 64.875 -4.828125 C 64.1875 -3.003906 62.925781 -1.523438 61.09375 -0.390625 C 59.257812 0.742188 56.695312 1.3125 53.40625 1.3125 C 48.863281 1.3125 45.691406 0.472656 43.890625 -1.203125 C 42.097656 -2.890625 41.203125 -5.601562 41.203125 -9.34375 L 40.765625 -9.34375 C 38.710938 -5.53125 35.945312 -2.800781 32.46875 -1.15625 C 28.988281 0.488281 25.640625 1.3125 22.421875 1.3125 C 16.703125 1.3125 12.265625 -0.3125 9.109375 -3.5625 C 5.960938 -6.820312 4.390625 -10.910156 4.390625 -15.828125 Z M 27.46875 -4.71875 C 29.882812 -4.71875 32.132812 -5.25 34.21875 -6.3125 C 36.3125 -7.375 38 -8.945312 39.28125 -11.03125 C 40.5625 -13.125 41.203125 -15.707031 41.203125 -18.78125 L 41.203125 -28.890625 C 39.441406 -30.359375 37.257812 -31.421875 34.65625 -32.078125 C 32.0625 -32.742188 29.59375 -33.003906 27.25 -32.859375 C 24.46875 -32.710938 22.195312 -31.941406 20.4375 -30.546875 C 18.675781 -29.148438 17.390625 -27.445312 16.578125 -25.4375 C 15.773438 -23.425781 15.375 -21.359375 15.375 -19.234375 C 15.375 -14.765625 16.378906 -11.226562 18.390625 -8.625 C 20.410156 -6.019531 23.4375 -4.71875 27.46875 -4.71875 Z M 27.46875 -4.71875 "/></g></g></g><g fill="#5d452b" fill-opacity="1"><g transform="translate(117.741756, 86.995237)"><g><path d="M 5.828125 0 L 4.390625 0 L 4.390625 -22.75 L 5.828125 -22.75 C 5.828125 -18.5 6.375 -14.960938 7.46875 -12.140625 C 8.570312 -9.316406 9.984375 -7.082031 11.703125 -5.4375 C 13.421875 -3.789062 15.234375 -2.617188 17.140625 -1.921875 C 19.046875 -1.222656 20.84375 -0.875 22.53125 -0.875 C 26.257812 -0.875 29.039062 -1.71875 30.875 -3.40625 C 32.707031 -5.09375 33.625 -7.21875 33.625 -9.78125 C 33.625 -12.632812 32.925781 -14.921875 31.53125 -16.640625 C 30.144531 -18.367188 28.351562 -19.78125 26.15625 -20.875 C 23.957031 -21.976562 21.628906 -22.984375 19.171875 -23.890625 C 16.722656 -24.804688 14.398438 -25.882812 12.203125 -27.125 C 10.003906 -28.375 8.1875 -30.003906 6.75 -32.015625 C 5.320312 -34.035156 4.609375 -36.660156 4.609375 -39.890625 C 4.609375 -44.648438 6.179688 -48.4375 9.328125 -51.25 C 12.484375 -54.070312 16.625 -55.484375 21.75 -55.484375 C 24.164062 -55.484375 26.179688 -55.15625 27.796875 -54.5 C 29.410156 -53.84375 30.835938 -53.164062 32.078125 -52.46875 C 33.328125 -51.769531 34.5 -51.421875 35.59375 -51.421875 C 36.40625 -51.421875 36.957031 -51.691406 37.25 -52.234375 C 37.539062 -52.785156 37.6875 -53.429688 37.6875 -54.171875 L 39.109375 -54.171875 L 39.21875 -36.265625 L 37.6875 -36.265625 C 37.6875 -39.410156 37.097656 -42.265625 35.921875 -44.828125 C 34.753906 -47.390625 33.070312 -49.457031 30.875 -51.03125 C 28.675781 -52.613281 26.003906 -53.40625 22.859375 -53.40625 C 20.367188 -53.40625 18.367188 -52.707031 16.859375 -51.3125 C 15.359375 -49.914062 14.609375 -48.046875 14.609375 -45.703125 C 14.609375 -42.992188 15.285156 -40.816406 16.640625 -39.171875 C 17.992188 -37.523438 19.769531 -36.132812 21.96875 -35 C 24.164062 -33.863281 26.507812 -32.78125 29 -31.75 C 31.5 -30.726562 33.863281 -29.539062 36.09375 -28.1875 C 38.320312 -26.832031 40.132812 -25.054688 41.53125 -22.859375 C 42.925781 -20.660156 43.625 -17.835938 43.625 -14.390625 C 43.550781 -9.847656 41.8125 -6.09375 38.40625 -3.125 C 35 -0.164062 30.507812 1.3125 24.9375 1.3125 C 22.300781 1.3125 20.125 1.070312 18.40625 0.59375 C 16.6875 0.125 15.222656 -0.398438 14.015625 -0.984375 C 12.804688 -1.578125 11.722656 -2.054688 10.765625 -2.421875 C 9.816406 -2.785156 8.789062 -2.859375 7.6875 -2.640625 C 6.445312 -2.421875 5.828125 -1.539062 5.828125 0 Z M 5.828125 0 "/></g></g></g><g fill="#5d452b" fill-opacity="1"><g transform="translate(174.105344, 86.995237)"><g><path d="M 3.296875 -79.328125 L 3.296875 -80.765625 L 23.40625 -84.71875 L 23.40625 -46.03125 C 25.09375 -48.601562 27.304688 -50.820312 30.046875 -52.6875 C 32.796875 -54.550781 36.550781 -55.484375 41.3125 -55.484375 C 43.875 -55.484375 46.488281 -54.96875 49.15625 -53.9375 C 51.832031 -52.914062 54.066406 -51.140625 55.859375 -48.609375 C 57.660156 -46.085938 58.5625 -42.484375 58.5625 -37.796875 L 58.5625 -7.46875 C 58.5625 -4.90625 59.21875 -3.253906 60.53125 -2.515625 C 61.851562 -1.785156 63.796875 -1.421875 66.359375 -1.421875 L 66.359375 0 L 39.890625 0 L 39.890625 -1.421875 C 42.523438 -1.421875 44.460938 -1.785156 45.703125 -2.515625 C 46.953125 -3.253906 47.578125 -4.867188 47.578125 -7.359375 L 47.578125 -41.859375 C 47.578125 -45.523438 46.804688 -48.195312 45.265625 -49.875 C 43.734375 -51.5625 41.207031 -52.40625 37.6875 -52.40625 C 35.125 -52.40625 32.757812 -51.816406 30.59375 -50.640625 C 28.4375 -49.472656 26.695312 -47.957031 25.375 -46.09375 C 24.0625 -44.226562 23.40625 -42.195312 23.40625 -40 L 23.40625 -7.359375 C 23.40625 -4.796875 24.265625 -3.164062 25.984375 -2.46875 C 27.703125 -1.769531 29.804688 -1.421875 32.296875 -1.421875 L 32.296875 0 L 4.609375 0 L 4.609375 -1.421875 C 7.328125 -1.421875 9.304688 -1.785156 10.546875 -2.515625 C 11.796875 -3.253906 12.421875 -4.867188 12.421875 -7.359375 L 12.421875 -73.28125 C 12.421875 -75.476562 11.613281 -77.035156 10 -77.953125 C 8.382812 -78.867188 6.148438 -79.328125 3.296875 -79.328125 Z M 3.296875 -79.328125 "/></g></g></g><g fill="#5d452b" fill-opacity="1"><g transform="translate(251.0146, 86.995237)"><g><path d="M 32.296875 1.3125 C 26.148438 1.3125 21.003906 0.101562 16.859375 -2.3125 C 12.722656 -4.726562 9.609375 -8.054688 7.515625 -12.296875 C 5.429688 -16.546875 4.390625 -21.382812 4.390625 -26.8125 C 4.390625 -30.46875 5.046875 -34 6.359375 -37.40625 C 7.679688 -40.8125 9.609375 -43.867188 12.140625 -46.578125 C 14.671875 -49.296875 17.726562 -51.457031 21.3125 -53.0625 C 24.90625 -54.675781 29.007812 -55.484375 33.625 -55.484375 C 38.09375 -55.484375 41.878906 -54.507812 44.984375 -52.5625 C 48.097656 -50.625 50.5 -48.046875 52.1875 -44.828125 C 53.875 -41.609375 54.71875 -38.054688 54.71875 -34.171875 L 15.5 -34.171875 C 15.414062 -33.660156 15.375 -33.164062 15.375 -32.6875 C 15.375 -32.207031 15.375 -31.710938 15.375 -31.203125 C 15.375 -26.078125 16.144531 -21.515625 17.6875 -17.515625 C 19.226562 -13.523438 21.570312 -10.394531 24.71875 -8.125 C 27.875 -5.851562 31.832031 -4.71875 36.59375 -4.71875 C 40.394531 -4.71875 43.484375 -5.453125 45.859375 -6.921875 C 48.242188 -8.390625 50.078125 -10.1875 51.359375 -12.3125 C 52.648438 -14.4375 53.53125 -16.578125 54 -18.734375 C 54.476562 -20.890625 54.71875 -22.664062 54.71875 -24.0625 L 56.140625 -24.0625 C 56.066406 -19.8125 55.242188 -15.742188 53.671875 -11.859375 C 52.097656 -7.984375 49.585938 -4.816406 46.140625 -2.359375 C 42.703125 0.0859375 38.085938 1.3125 32.296875 1.3125 Z M 15.71875 -35.59375 L 45.484375 -35.59375 C 45.484375 -37.570312 45.335938 -39.601562 45.046875 -41.6875 C 44.753906 -43.78125 44.1875 -45.707031 43.34375 -47.46875 C 42.5 -49.226562 41.195312 -50.640625 39.4375 -51.703125 C 37.6875 -52.765625 35.378906 -53.296875 32.515625 -53.296875 C 28.128906 -53.296875 24.414062 -51.679688 21.375 -48.453125 C 18.332031 -45.234375 16.445312 -40.945312 15.71875 -35.59375 Z M 15.71875 -35.59375 "/></g></g></g><g fill="#5d452b" fill-opacity="1"><g transform="translate(319.35401, 86.995237)"><g><path d="M 5.828125 0 L 4.390625 0 L 4.390625 -22.75 L 5.828125 -22.75 C 5.828125 -18.5 6.375 -14.960938 7.46875 -12.140625 C 8.570312 -9.316406 9.984375 -7.082031 11.703125 -5.4375 C 13.421875 -3.789062 15.234375 -2.617188 17.140625 -1.921875 C 19.046875 -1.222656 20.84375 -0.875 22.53125 -0.875 C 26.257812 -0.875 29.039062 -1.71875 30.875 -3.40625 C 32.707031 -5.09375 33.625 -7.21875 33.625 -9.78125 C 33.625 -12.632812 32.925781 -14.921875 31.53125 -16.640625 C 30.144531 -18.367188 28.351562 -19.78125 26.15625 -20.875 C 23.957031 -21.976562 21.628906 -22.984375 19.171875 -23.890625 C 16.722656 -24.804688 14.398438 -25.882812 12.203125 -27.125 C 10.003906 -28.375 8.1875 -30.003906 6.75 -32.015625 C 5.320312 -34.035156 4.609375 -36.660156 4.609375 -39.890625 C 4.609375 -44.648438 6.179688 -48.4375 9.328125 -51.25 C 12.484375 -54.070312 16.625 -55.484375 21.75 -55.484375 C 24.164062 -55.484375 26.179688 -55.15625 27.796875 -54.5 C 29.410156 -53.84375 30.835938 -53.164062 32.078125 -52.46875 C 33.328125 -51.769531 34.5 -51.421875 35.59375 -51.421875 C 36.40625 -51.421875 36.957031 -51.691406 37.25 -52.234375 C 37.539062 -52.785156 37.6875 -53.429688 37.6875 -54.171875 L 39.109375 -54.171875 L 39.21875 -36.265625 L 37.6875 -36.265625 C 37.6875 -39.410156 37.097656 -42.265625 35.921875 -44.828125 C 34.753906 -47.390625 33.070312 -49.457031 30.875 -51.03125 C 28.675781 -52.613281 26.003906 -53.40625 22.859375 -53.40625 C 20.367188 -53.40625 18.367188 -52.707031 16.859375 -51.3125 C 15.359375 -49.914062 14.609375 -48.046875 14.609375 -45.703125 C 14.609375 -42.992188 15.285156 -40.816406 16.640625 -39.171875 C 17.992188 -37.523438 19.769531 -36.132812 21.96875 -35 C 24.164062 -33.863281 26.507812 -32.78125 29 -31.75 C 31.5 -30.726562 33.863281 -29.539062 36.09375 -28.1875 C 38.320312 -26.832031 40.132812 -25.054688 41.53125 -22.859375 C 42.925781 -20.660156 43.625 -17.835938 43.625 -14.390625 C 43.550781 -9.847656 41.8125 -6.09375 38.40625 -3.125 C 35 -0.164062 30.507812 1.3125 24.9375 1.3125 C 22.300781 1.3125 20.125 1.070312 18.40625 0.59375 C 16.6875 0.125 15.222656 -0.398438 14.015625 -0.984375 C 12.804688 -1.578125 11.722656 -2.054688 10.765625 -2.421875 C 9.816406 -2.785156 8.789062 -2.859375 7.6875 -2.640625 C 6.445312 -2.421875 5.828125 -1.539062 5.828125 0 Z M 5.828125 0 "/></g></g></g></g></g></g><g fill="#5d452b" fill-opacity="1"><g transform="translate(95.37839, 153.411358)"><g><path d="M 11.875 -19.265625 C 13.863281 -19.265625 15.515625 -18.441406 16.828125 -16.796875 C 18.140625 -15.160156 18.796875 -12.679688 18.796875 -9.359375 C 18.796875 -7.171875 18.425781 -5.34375 17.6875 -3.875 C 16.945312 -2.40625 15.957031 -1.304688 14.71875 -0.578125 C 13.476562 0.148438 12.128906 0.515625 10.671875 0.515625 C 9.453125 0.515625 8.28125 0.171875 7.15625 -0.515625 C 6.03125 -1.210938 5.1875 -2.242188 4.625 -3.609375 L 5.359375 -3.203125 C 5.960938 -2.234375 6.710938 -1.507812 7.609375 -1.03125 C 8.503906 -0.5625 9.425781 -0.328125 10.375 -0.328125 C 12.007812 -0.328125 13.234375 -1.0625 14.046875 -2.53125 C 14.859375 -4 15.265625 -6.273438 15.265625 -9.359375 C 15.265625 -11.328125 15.101562 -12.96875 14.78125 -14.28125 C 14.46875 -15.59375 13.984375 -16.566406 13.328125 -17.203125 C 12.671875 -17.847656 11.832031 -18.171875 10.8125 -18.171875 C 9.695312 -18.171875 8.660156 -17.664062 7.703125 -16.65625 C 6.742188 -15.65625 6.15625 -14.179688 5.9375 -12.234375 L 5.5 -12.75 C 5.769531 -14.8125 6.492188 -16.410156 7.671875 -17.546875 C 8.847656 -18.691406 10.25 -19.265625 11.875 -19.265625 Z M 6.1875 -28.515625 L 6.1875 -1.890625 C 5.875 -1.628906 5.550781 -1.359375 5.21875 -1.078125 C 4.894531 -0.796875 4.570312 -0.519531 4.25 -0.25 C 3.9375 0.0078125 3.613281 0.285156 3.28125 0.578125 L 2.65625 0.328125 C 2.75 -0.015625 2.8125 -0.359375 2.84375 -0.703125 C 2.882812 -1.054688 2.90625 -1.414062 2.90625 -1.78125 L 2.90625 -24.140625 C 2.90625 -25.234375 2.710938 -26.039062 2.328125 -26.5625 C 1.941406 -27.09375 1.210938 -27.359375 0.140625 -27.359375 L 0.140625 -28.125 C 0.921875 -28.050781 1.675781 -28.015625 2.40625 -28.015625 C 3.101562 -28.015625 3.773438 -28.054688 4.421875 -28.140625 C 5.066406 -28.222656 5.65625 -28.347656 6.1875 -28.515625 Z M 6.1875 -28.515625 "/></g></g></g><g fill="#5d452b" fill-opacity="1"><g transform="translate(115.87868, 153.411358)"><g><path d="M 18 -18.75 L 18 -18.03125 C 17.53125 -17.976562 17.101562 -17.769531 16.71875 -17.40625 C 16.332031 -17.039062 15.96875 -16.398438 15.625 -15.484375 L 9.65625 0.1875 L 9.03125 0.1875 L 2.328125 -15.953125 C 1.867188 -16.898438 1.414062 -17.476562 0.96875 -17.6875 C 0.519531 -17.894531 0.148438 -18 -0.140625 -18 L -0.140625 -18.75 C 0.390625 -18.675781 0.945312 -18.617188 1.53125 -18.578125 C 2.113281 -18.546875 2.742188 -18.53125 3.421875 -18.53125 C 4.171875 -18.53125 4.960938 -18.554688 5.796875 -18.609375 C 6.640625 -18.660156 7.425781 -18.707031 8.15625 -18.75 L 8.15625 -18 C 7.550781 -18 7.007812 -17.953125 6.53125 -17.859375 C 6.0625 -17.773438 5.765625 -17.519531 5.640625 -17.09375 C 5.523438 -16.675781 5.671875 -15.957031 6.078125 -14.9375 L 10.5625 -3.828125 L 10.34375 -3.75 L 14.5 -14.609375 C 14.8125 -15.410156 14.9375 -16.046875 14.875 -16.515625 C 14.8125 -16.992188 14.5625 -17.351562 14.125 -17.59375 C 13.6875 -17.832031 13.035156 -17.976562 12.171875 -18.03125 L 12.171875 -18.75 C 12.609375 -18.726562 12.984375 -18.710938 13.296875 -18.703125 C 13.609375 -18.691406 13.914062 -18.675781 14.21875 -18.65625 C 14.519531 -18.644531 14.851562 -18.640625 15.21875 -18.640625 C 15.78125 -18.640625 16.285156 -18.648438 16.734375 -18.671875 C 17.179688 -18.703125 17.601562 -18.726562 18 -18.75 Z M 9.65625 0.1875 L 8.40625 3.34375 C 8.164062 3.957031 7.914062 4.46875 7.65625 4.875 C 7.40625 5.289062 7.132812 5.632812 6.84375 5.90625 C 6.457031 6.269531 5.992188 6.515625 5.453125 6.640625 C 4.921875 6.773438 4.4375 6.84375 4 6.84375 C 3.539062 6.84375 3.125 6.757812 2.75 6.59375 C 2.375 6.425781 2.078125 6.175781 1.859375 5.84375 C 1.640625 5.519531 1.53125 5.125 1.53125 4.65625 C 1.53125 4.070312 1.695312 3.601562 2.03125 3.25 C 2.375 2.90625 2.847656 2.734375 3.453125 2.734375 C 3.960938 2.734375 4.398438 2.878906 4.765625 3.171875 C 5.128906 3.460938 5.3125 3.882812 5.3125 4.4375 C 5.3125 4.851562 5.210938 5.191406 5.015625 5.453125 C 4.828125 5.722656 4.597656 5.929688 4.328125 6.078125 C 4.378906 6.109375 4.421875 6.125 4.453125 6.125 C 4.492188 6.125 4.523438 6.125 4.546875 6.125 C 5.203125 6.125 5.785156 5.894531 6.296875 5.4375 C 6.804688 4.988281 7.257812 4.269531 7.65625 3.28125 L 8.953125 -0.109375 Z M 9.65625 0.1875 "/></g></g></g><g fill="#5d452b" fill-opacity="1"><g transform="translate(134.230631, 153.411358)"><g/></g></g><g fill="#5d452b" fill-opacity="1"><g transform="translate(143.29737, 153.411358)"><g><path d="M 10.8125 -25.78125 L 10.8125 -25.0625 C 9.988281 -25.03125 9.363281 -24.9375 8.9375 -24.78125 C 8.507812 -24.625 8.222656 -24.332031 8.078125 -23.90625 C 7.929688 -23.488281 7.859375 -22.828125 7.859375 -21.921875 L 7.859375 -3.859375 C 7.859375 -2.984375 7.929688 -2.328125 8.078125 -1.890625 C 8.222656 -1.453125 8.507812 -1.164062 8.9375 -1.03125 C 9.363281 -0.90625 9.988281 -0.84375 10.8125 -0.84375 L 13.46875 -0.84375 C 14.613281 -0.84375 15.546875 -0.960938 16.265625 -1.203125 C 16.984375 -1.441406 17.550781 -1.820312 17.96875 -2.34375 C 18.394531 -2.863281 18.71875 -3.5625 18.9375 -4.4375 C 19.15625 -5.3125 19.328125 -6.382812 19.453125 -7.65625 L 20.28125 -7.65625 C 20.207031 -6.894531 20.171875 -5.894531 20.171875 -4.65625 C 20.171875 -4.195312 20.1875 -3.535156 20.21875 -2.671875 C 20.257812 -1.816406 20.332031 -0.925781 20.4375 0 C 19.195312 -0.0507812 17.796875 -0.0820312 16.234375 -0.09375 C 14.679688 -0.101562 13.300781 -0.109375 12.09375 -0.109375 C 11.5625 -0.109375 10.875 -0.109375 10.03125 -0.109375 C 9.195312 -0.109375 8.289062 -0.101562 7.3125 -0.09375 C 6.34375 -0.0820312 5.359375 -0.0664062 4.359375 -0.046875 C 3.367188 -0.0351562 2.425781 -0.0195312 1.53125 0 L 1.53125 -0.734375 C 2.351562 -0.773438 2.976562 -0.867188 3.40625 -1.015625 C 3.832031 -1.160156 4.117188 -1.453125 4.265625 -1.890625 C 4.410156 -2.328125 4.484375 -2.984375 4.484375 -3.859375 L 4.484375 -21.921875 C 4.484375 -22.828125 4.410156 -23.488281 4.265625 -23.90625 C 4.117188 -24.332031 3.832031 -24.625 3.40625 -24.78125 C 2.976562 -24.9375 2.351562 -25.03125 1.53125 -25.0625 L 1.53125 -25.78125 C 2.039062 -25.757812 2.707031 -25.734375 3.53125 -25.703125 C 4.351562 -25.679688 5.238281 -25.671875 6.1875 -25.671875 C 7.039062 -25.671875 7.882812 -25.679688 8.71875 -25.703125 C 9.5625 -25.734375 10.257812 -25.757812 10.8125 -25.78125 Z M 10.8125 -25.78125 "/></g></g></g><g fill="#5d452b" fill-opacity="1"><g transform="translate(164.707978, 153.411358)"><g><path d="M 5.21875 -27.859375 C 5.84375 -27.859375 6.382812 -27.628906 6.84375 -27.171875 C 7.3125 -26.710938 7.546875 -26.164062 7.546875 -25.53125 C 7.546875 -24.894531 7.3125 -24.347656 6.84375 -23.890625 C 6.382812 -23.429688 5.84375 -23.203125 5.21875 -23.203125 C 4.582031 -23.203125 4.035156 -23.429688 3.578125 -23.890625 C 3.117188 -24.347656 2.890625 -24.894531 2.890625 -25.53125 C 2.890625 -26.164062 3.117188 -26.710938 3.578125 -27.171875 C 4.035156 -27.628906 4.582031 -27.859375 5.21875 -27.859375 Z M 7.109375 -19.15625 L 7.109375 -3.390625 C 7.109375 -2.367188 7.316406 -1.675781 7.734375 -1.3125 C 8.160156 -0.945312 8.875 -0.765625 9.875 -0.765625 L 9.875 0 C 9.457031 -0.0195312 8.828125 -0.046875 7.984375 -0.078125 C 7.148438 -0.117188 6.3125 -0.140625 5.46875 -0.140625 C 4.632812 -0.140625 3.789062 -0.117188 2.9375 -0.078125 C 2.09375 -0.046875 1.46875 -0.0195312 1.0625 0 L 1.0625 -0.765625 C 2.050781 -0.765625 2.757812 -0.945312 3.1875 -1.3125 C 3.613281 -1.675781 3.828125 -2.367188 3.828125 -3.390625 L 3.828125 -14.78125 C 3.828125 -15.875 3.628906 -16.679688 3.234375 -17.203125 C 2.847656 -17.734375 2.125 -18 1.0625 -18 L 1.0625 -18.75 C 1.832031 -18.675781 2.582031 -18.640625 3.3125 -18.640625 C 4.019531 -18.640625 4.691406 -18.679688 5.328125 -18.765625 C 5.972656 -18.859375 6.566406 -18.988281 7.109375 -19.15625 Z M 7.109375 -19.15625 "/></g></g></g><g fill="#5d452b" fill-opacity="1"><g transform="translate(175.376873, 153.411358)"><g><path d="M 15.984375 -18.9375 L 5.46875 -0.546875 L 9.46875 -0.546875 C 10.4375 -0.546875 11.28125 -0.738281 12 -1.125 C 12.71875 -1.519531 13.296875 -2.144531 13.734375 -3 C 14.171875 -3.863281 14.4375 -5 14.53125 -6.40625 L 15.375 -6.40625 C 15.375 -4.851562 15.382812 -3.539062 15.40625 -2.46875 C 15.425781 -1.40625 15.460938 -0.535156 15.515625 0.140625 C 14.441406 0.0976562 13.328125 0.0625 12.171875 0.03125 C 11.023438 0.0078125 9.878906 0 8.734375 0 C 7.523438 0 6.285156 0.015625 5.015625 0.046875 C 3.753906 0.0859375 2.546875 0.132812 1.390625 0.1875 L 11.90625 -18.203125 L 7.90625 -18.203125 C 6.832031 -18.203125 5.9375 -18.007812 5.21875 -17.625 C 4.507812 -17.238281 3.960938 -16.613281 3.578125 -15.75 C 3.203125 -14.882812 2.957031 -13.75 2.84375 -12.34375 L 2 -12.34375 C 2 -13.925781 1.988281 -15.242188 1.96875 -16.296875 C 1.945312 -17.359375 1.910156 -18.226562 1.859375 -18.90625 C 2.921875 -18.851562 4.03125 -18.8125 5.1875 -18.78125 C 6.34375 -18.757812 7.488281 -18.75 8.625 -18.75 C 9.84375 -18.75 11.082031 -18.765625 12.34375 -18.796875 C 13.601562 -18.835938 14.816406 -18.882812 15.984375 -18.9375 Z M 15.984375 -18.9375 "/></g></g></g><g fill="#5d452b" fill-opacity="1"><g transform="translate(192.709265, 153.411358)"><g/></g></g><g fill="#5d452b" fill-opacity="1"><g transform="translate(201.776005, 153.411358)"><g><path d="M 30.1875 -25.78125 L 30.1875 -25.0625 C 29.363281 -25.03125 28.738281 -24.9375 28.3125 -24.78125 C 27.894531 -24.625 27.613281 -24.332031 27.46875 -23.90625 C 27.320312 -23.488281 27.25 -22.828125 27.25 -21.921875 L 27.25 -3.859375 C 27.25 -2.984375 27.320312 -2.328125 27.46875 -1.890625 C 27.613281 -1.453125 27.894531 -1.160156 28.3125 -1.015625 C 28.738281 -0.867188 29.363281 -0.773438 30.1875 -0.734375 L 30.1875 0 C 29.632812 -0.0507812 28.9375 -0.0820312 28.09375 -0.09375 C 27.257812 -0.101562 26.414062 -0.109375 25.5625 -0.109375 C 24.613281 -0.109375 23.726562 -0.101562 22.90625 -0.09375 C 22.082031 -0.0820312 21.414062 -0.0507812 20.90625 0 L 20.90625 -0.734375 C 21.726562 -0.773438 22.351562 -0.867188 22.78125 -1.015625 C 23.207031 -1.160156 23.492188 -1.453125 23.640625 -1.890625 C 23.785156 -2.328125 23.859375 -2.984375 23.859375 -3.859375 L 23.859375 -23.890625 L 24 -23.78125 L 15.078125 0.1875 L 14.5 0.1875 L 5.3125 -23.453125 L 5.3125 -4.21875 C 5.3125 -3.34375 5.390625 -2.65625 5.546875 -2.15625 C 5.710938 -1.664062 6.03125 -1.316406 6.5 -1.109375 C 6.976562 -0.898438 7.6875 -0.773438 8.625 -0.734375 L 8.625 0 C 8.1875 -0.0507812 7.613281 -0.0820312 6.90625 -0.09375 C 6.207031 -0.101562 5.546875 -0.109375 4.921875 -0.109375 C 4.304688 -0.109375 3.691406 -0.101562 3.078125 -0.09375 C 2.460938 -0.0820312 1.945312 -0.0507812 1.53125 0 L 1.53125 -0.734375 C 2.351562 -0.773438 2.976562 -0.898438 3.40625 -1.109375 C 3.832031 -1.316406 4.117188 -1.664062 4.265625 -2.15625 C 4.410156 -2.65625 4.484375 -3.34375 4.484375 -4.21875 L 4.484375 -21.921875 C 4.484375 -22.828125 4.410156 -23.488281 4.265625 -23.90625 C 4.117188 -24.332031 3.832031 -24.625 3.40625 -24.78125 C 2.976562 -24.9375 2.351562 -25.03125 1.53125 -25.0625 L 1.53125 -25.78125 C 1.945312 -25.757812 2.460938 -25.734375 3.078125 -25.703125 C 3.691406 -25.679688 4.304688 -25.671875 4.921875 -25.671875 C 5.453125 -25.671875 6.003906 -25.679688 6.578125 -25.703125 C 7.148438 -25.734375 7.628906 -25.757812 8.015625 -25.78125 L 16.28125 -4 L 15.65625 -3.71875 L 23.859375 -25.671875 C 24.148438 -25.671875 24.429688 -25.671875 24.703125 -25.671875 C 24.984375 -25.671875 25.269531 -25.671875 25.5625 -25.671875 C 26.414062 -25.671875 27.257812 -25.679688 28.09375 -25.703125 C 28.9375 -25.734375 29.632812 -25.757812 30.1875 -25.78125 Z M 30.1875 -25.78125 "/></g></g></g><g fill="#5d452b" fill-opacity="1"><g transform="translate(233.491372, 153.411358)"><g><path d="M 6.234375 0.25 C 5.234375 0.25 4.367188 0.0625 3.640625 -0.3125 C 2.910156 -0.6875 2.359375 -1.210938 1.984375 -1.890625 C 1.609375 -2.566406 1.421875 -3.359375 1.421875 -4.265625 C 1.421875 -5.328125 1.664062 -6.195312 2.15625 -6.875 C 2.65625 -7.5625 3.296875 -8.109375 4.078125 -8.515625 C 4.859375 -8.929688 5.675781 -9.28125 6.53125 -9.5625 C 7.394531 -9.84375 8.210938 -10.109375 8.984375 -10.359375 C 9.765625 -10.617188 10.40625 -10.914062 10.90625 -11.25 C 11.40625 -11.59375 11.65625 -12.046875 11.65625 -12.609375 L 11.65625 -14.859375 C 11.65625 -15.878906 11.503906 -16.65625 11.203125 -17.1875 C 10.898438 -17.726562 10.492188 -18.085938 9.984375 -18.265625 C 9.472656 -18.441406 8.898438 -18.53125 8.265625 -18.53125 C 7.660156 -18.53125 7.007812 -18.445312 6.3125 -18.28125 C 5.625 -18.113281 5.070312 -17.765625 4.65625 -17.234375 C 5.125 -17.128906 5.523438 -16.882812 5.859375 -16.5 C 6.203125 -16.113281 6.375 -15.613281 6.375 -15 C 6.375 -14.394531 6.175781 -13.914062 5.78125 -13.5625 C 5.394531 -13.207031 4.898438 -13.03125 4.296875 -13.03125 C 3.585938 -13.03125 3.070312 -13.253906 2.75 -13.703125 C 2.425781 -14.160156 2.265625 -14.664062 2.265625 -15.21875 C 2.265625 -15.851562 2.421875 -16.363281 2.734375 -16.75 C 3.046875 -17.144531 3.445312 -17.507812 3.9375 -17.84375 C 4.488281 -18.226562 5.207031 -18.5625 6.09375 -18.84375 C 6.988281 -19.125 7.992188 -19.265625 9.109375 -19.265625 C 10.097656 -19.265625 10.945312 -19.148438 11.65625 -18.921875 C 12.363281 -18.691406 12.945312 -18.359375 13.40625 -17.921875 C 14.03125 -17.335938 14.441406 -16.625 14.640625 -15.78125 C 14.835938 -14.945312 14.9375 -13.945312 14.9375 -12.78125 L 14.9375 -2.65625 C 14.9375 -2.050781 15.023438 -1.613281 15.203125 -1.34375 C 15.390625 -1.082031 15.675781 -0.953125 16.0625 -0.953125 C 16.332031 -0.953125 16.585938 -1.007812 16.828125 -1.125 C 17.066406 -1.25 17.359375 -1.445312 17.703125 -1.71875 L 18.109375 -1.09375 C 17.597656 -0.707031 17.109375 -0.382812 16.640625 -0.125 C 16.179688 0.125 15.5625 0.25 14.78125 0.25 C 14.082031 0.25 13.5 0.128906 13.03125 -0.109375 C 12.570312 -0.347656 12.226562 -0.703125 12 -1.171875 C 11.769531 -1.648438 11.65625 -2.253906 11.65625 -2.984375 C 11 -1.890625 10.210938 -1.078125 9.296875 -0.546875 C 8.390625 -0.015625 7.367188 0.25 6.234375 0.25 Z M 7.546875 -1.203125 C 8.335938 -1.203125 9.078125 -1.429688 9.765625 -1.890625 C 10.460938 -2.359375 11.09375 -3.050781 11.65625 -3.96875 L 11.65625 -11.109375 C 11.363281 -10.691406 10.9375 -10.34375 10.375 -10.0625 C 9.820312 -9.789062 9.21875 -9.515625 8.5625 -9.234375 C 7.90625 -8.953125 7.28125 -8.625 6.6875 -8.25 C 6.09375 -7.875 5.597656 -7.378906 5.203125 -6.765625 C 4.816406 -6.160156 4.625 -5.375 4.625 -4.40625 C 4.625 -3.4375 4.882812 -2.660156 5.40625 -2.078125 C 5.925781 -1.492188 6.640625 -1.203125 7.546875 -1.203125 Z M 7.546875 -1.203125 "/></g></g></g><g fill="#5d452b" fill-opacity="1"><g transform="translate(251.624841, 153.411358)"><g><path d="M 12.390625 -19.265625 C 13.035156 -19.265625 13.609375 -19.128906 14.109375 -18.859375 C 14.609375 -18.597656 15 -18.253906 15.28125 -17.828125 C 15.5625 -17.398438 15.703125 -16.921875 15.703125 -16.390625 C 15.703125 -15.785156 15.507812 -15.25 15.125 -14.78125 C 14.75 -14.320312 14.25 -14.09375 13.625 -14.09375 C 13.113281 -14.09375 12.660156 -14.253906 12.265625 -14.578125 C 11.878906 -14.910156 11.6875 -15.378906 11.6875 -15.984375 C 11.6875 -16.453125 11.8125 -16.847656 12.0625 -17.171875 C 12.320312 -17.503906 12.613281 -17.765625 12.9375 -17.953125 C 12.757812 -18.191406 12.503906 -18.3125 12.171875 -18.3125 C 11.410156 -18.3125 10.710938 -18.085938 10.078125 -17.640625 C 9.453125 -17.191406 8.921875 -16.613281 8.484375 -15.90625 C 8.046875 -15.207031 7.707031 -14.460938 7.46875 -13.671875 C 7.226562 -12.890625 7.109375 -12.15625 7.109375 -11.46875 L 7.109375 -3.75 C 7.109375 -2.5625 7.453125 -1.765625 8.140625 -1.359375 C 8.828125 -0.960938 9.769531 -0.765625 10.96875 -0.765625 L 10.96875 0 C 10.40625 -0.0195312 9.613281 -0.046875 8.59375 -0.078125 C 7.570312 -0.117188 6.492188 -0.140625 5.359375 -0.140625 C 4.523438 -0.140625 3.703125 -0.117188 2.890625 -0.078125 C 2.078125 -0.046875 1.46875 -0.0195312 1.0625 0 L 1.0625 -0.765625 C 2.050781 -0.765625 2.757812 -0.945312 3.1875 -1.3125 C 3.613281 -1.675781 3.828125 -2.367188 3.828125 -3.390625 L 3.828125 -14.78125 C 3.828125 -15.875 3.628906 -16.679688 3.234375 -17.203125 C 2.847656 -17.734375 2.125 -18 1.0625 -18 L 1.0625 -18.75 C 1.832031 -18.675781 2.582031 -18.640625 3.3125 -18.640625 C 4.019531 -18.640625 4.691406 -18.679688 5.328125 -18.765625 C 5.972656 -18.859375 6.566406 -18.988281 7.109375 -19.15625 L 7.109375 -14.609375 C 7.367188 -15.304688 7.75 -16.015625 8.25 -16.734375 C 8.75 -17.453125 9.347656 -18.050781 10.046875 -18.53125 C 10.753906 -19.019531 11.535156 -19.265625 12.390625 -19.265625 Z M 12.390625 -19.265625 "/></g></g></g><g fill="#5d452b" fill-opacity="1"><g transform="translate(267.828443, 153.411358)"><g><path d="M 5.21875 -27.859375 C 5.84375 -27.859375 6.382812 -27.628906 6.84375 -27.171875 C 7.3125 -26.710938 7.546875 -26.164062 7.546875 -25.53125 C 7.546875 -24.894531 7.3125 -24.347656 6.84375 -23.890625 C 6.382812 -23.429688 5.84375 -23.203125 5.21875 -23.203125 C 4.582031 -23.203125 4.035156 -23.429688 3.578125 -23.890625 C 3.117188 -24.347656 2.890625 -24.894531 2.890625 -25.53125 C 2.890625 -26.164062 3.117188 -26.710938 3.578125 -27.171875 C 4.035156 -27.628906 4.582031 -27.859375 5.21875 -27.859375 Z M 7.109375 -19.15625 L 7.109375 -3.390625 C 7.109375 -2.367188 7.316406 -1.675781 7.734375 -1.3125 C 8.160156 -0.945312 8.875 -0.765625 9.875 -0.765625 L 9.875 0 C 9.457031 -0.0195312 8.828125 -0.046875 7.984375 -0.078125 C 7.148438 -0.117188 6.3125 -0.140625 5.46875 -0.140625 C 4.632812 -0.140625 3.789062 -0.117188 2.9375 -0.078125 C 2.09375 -0.046875 1.46875 -0.0195312 1.0625 0 L 1.0625 -0.765625 C 2.050781 -0.765625 2.757812 -0.945312 3.1875 -1.3125 C 3.613281 -1.675781 3.828125 -2.367188 3.828125 -3.390625 L 3.828125 -14.78125 C 3.828125 -15.875 3.628906 -16.679688 3.234375 -17.203125 C 2.847656 -17.734375 2.125 -18 1.0625 -18 L 1.0625 -18.75 C 1.832031 -18.675781 2.582031 -18.640625 3.3125 -18.640625 C 4.019531 -18.640625 4.691406 -18.679688 5.328125 -18.765625 C 5.972656 -18.859375 6.566406 -18.988281 7.109375 -19.15625 Z M 7.109375 -19.15625 "/></g></g></g><g fill="#5d452b" fill-opacity="1"><g transform="translate(278.497338, 153.411358)"><g><path d="M 9.90625 -19.265625 C 12.039062 -19.265625 13.707031 -18.613281 14.90625 -17.3125 C 16.113281 -16.019531 16.71875 -14 16.71875 -11.25 L 3.859375 -11.25 L 3.828125 -11.953125 L 13.21875 -11.953125 C 13.269531 -13.140625 13.171875 -14.234375 12.921875 -15.234375 C 12.679688 -16.242188 12.300781 -17.050781 11.78125 -17.65625 C 11.257812 -18.269531 10.585938 -18.578125 9.765625 -18.578125 C 8.640625 -18.578125 7.644531 -18.015625 6.78125 -16.890625 C 5.925781 -15.773438 5.414062 -14.003906 5.25 -11.578125 L 5.359375 -11.4375 C 5.304688 -11.070312 5.265625 -10.671875 5.234375 -10.234375 C 5.210938 -9.796875 5.203125 -9.359375 5.203125 -8.921875 C 5.203125 -7.273438 5.46875 -5.851562 6 -4.65625 C 6.539062 -3.46875 7.238281 -2.5625 8.09375 -1.9375 C 8.957031 -1.320312 9.851562 -1.015625 10.78125 -1.015625 C 11.507812 -1.015625 12.203125 -1.128906 12.859375 -1.359375 C 13.515625 -1.597656 14.117188 -1.984375 14.671875 -2.515625 C 15.234375 -3.046875 15.722656 -3.757812 16.140625 -4.65625 L 16.859375 -4.375 C 16.597656 -3.570312 16.160156 -2.789062 15.546875 -2.03125 C 14.941406 -1.28125 14.175781 -0.664062 13.25 -0.1875 C 12.332031 0.28125 11.265625 0.515625 10.046875 0.515625 C 8.304688 0.515625 6.804688 0.113281 5.546875 -0.6875 C 4.296875 -1.488281 3.335938 -2.597656 2.671875 -4.015625 C 2.003906 -5.441406 1.671875 -7.078125 1.671875 -8.921875 C 1.671875 -11.054688 2.007812 -12.894531 2.6875 -14.4375 C 3.375 -15.976562 4.335938 -17.164062 5.578125 -18 C 6.816406 -18.84375 8.257812 -19.265625 9.90625 -19.265625 Z M 9.90625 -19.265625 "/></g></g></g><g fill="#5d452b" fill-opacity="1"><g transform="translate(296.922921, 153.411358)"><g/></g></g></svg>